<svg width="14" height="14" viewBox="0 0 14 14" fill="none" xmlns="http://www.w3.org/2000/svg">
    <path d="M3.72717 0H10.4258C10.5747 0.0744292 10.7979 0.0744291 10.9468 0.148858C11.6 0.254722 12.2108 0.540668 12.7104 0.97456C13.21 1.40845 13.5787 1.97309 13.7751 2.60502C13.885 2.96918 13.9598 3.34304 13.9984 3.72146V10.2712C13.892 11.1013 13.5855 11.8931 13.1053 12.5785C12.6933 13.0559 12.1768 13.4318 11.5959 13.677C11.015 13.9223 10.3854 14.0303 9.75594 13.9927H4.17375C3.17755 14.041 2.19806 13.7234 1.41987 13.0995C0.946647 12.6907 0.573204 12.179 0.328099 11.6037C0.082994 11.0283 -0.02728 10.4045 0.00571072 9.78V4.56995C-0.00658486 4.19626 0.0183477 3.82227 0.0801399 3.45352C0.155298 2.69046 0.469041 1.9705 0.976781 1.39595C1.48452 0.821402 2.16043 0.421494 2.90845 0.253059L3.72717 0ZM1.41987 7.07077V9.97351C1.38813 10.3432 1.43758 10.7153 1.56476 11.0638C1.69193 11.4123 1.89375 11.7288 2.15609 11.9912C2.41843 12.2535 2.73494 12.4553 3.08347 12.5825C3.43199 12.7097 3.8041 12.7591 4.17375 12.7274C6.10891 12.8018 8.04406 12.8018 9.97922 12.7274C11.6911 12.7274 12.6587 11.6854 12.7331 9.97351C12.8075 8.03835 12.8075 6.1032 12.7331 4.16804C12.7524 3.80131 12.6944 3.43463 12.5628 3.09178C12.4312 2.74893 12.229 2.43756 11.9694 2.17789C11.7097 1.91822 11.3983 1.71604 11.0555 1.58447C10.7126 1.4529 10.3459 1.39487 9.97922 1.41416C8.04406 1.33973 6.10891 1.33973 4.17375 1.41416C3.8041 1.38242 3.43199 1.43187 3.08347 1.55905C2.73494 1.68622 2.41843 1.88804 2.15609 2.15038C1.89375 2.41272 1.69193 2.72923 1.56476 3.07776C1.43758 3.42628 1.38813 3.79839 1.41987 4.16804V7.07077Z" fill="white"/>
    <path d="M3.45898 7.10016C3.46095 6.13351 3.84582 5.20701 4.52935 4.52349C5.21287 3.83996 6.13937 3.45509 7.10601 3.45312C8.0673 3.47217 8.98392 3.86252 9.66379 4.54238C10.3437 5.22225 10.734 6.13887 10.753 7.10016C10.7511 8.0668 10.3662 8.9933 9.68268 9.67682C8.99916 10.3603 8.07266 10.7452 7.10601 10.7472C6.14473 10.7281 5.22811 10.3378 4.54824 9.65793C3.86838 8.97806 3.47803 8.06144 3.45898 7.10016ZM7.10601 4.79285C6.65395 4.7855 6.20998 4.9133 5.83102 5.15989C5.45206 5.40647 5.15535 5.7606 4.97894 6.17689C4.80253 6.59318 4.75444 7.05266 4.84085 7.49646C4.92725 7.94025 5.1442 8.34814 5.4639 8.66784C5.78361 8.98754 6.19149 9.20449 6.63528 9.29089C7.07908 9.3773 7.53856 9.32921 7.95485 9.1528C8.37114 8.97639 8.72527 8.67969 8.97185 8.30072C9.21844 7.92176 9.34624 7.47779 9.33889 7.02573C9.33889 6.43353 9.10364 5.86559 8.6849 5.44684C8.26615 5.0281 7.69821 4.79285 7.10601 4.79285Z" fill="white"/>
    <path d="M9.93461 3.30457C9.93046 3.18616 9.95071 3.06816 9.99413 2.95792C10.0375 2.84768 10.1032 2.74755 10.187 2.66377C10.2707 2.57999 10.3709 2.51435 10.4811 2.47093C10.5914 2.42752 10.7094 2.40726 10.8278 2.41142C11.0595 2.42709 11.2777 2.52623 11.4419 2.69045C11.6061 2.85467 11.7052 3.07285 11.7209 3.30457C11.7209 3.54145 11.6268 3.76863 11.4593 3.93612C11.2918 4.10362 11.0646 4.19772 10.8278 4.19772C10.5909 4.19772 10.3637 4.10362 10.1962 3.93612C10.0287 3.76863 9.93461 3.54145 9.93461 3.30457Z" fill="white"/>
</svg>
