<svg width="209" height="30" viewBox="0 0 209 30" fill="none" xmlns="http://www.w3.org/2000/svg">
    <path d="M57.1777 5.42188C57.3691 6.30599 57.5378 7.05339 57.6836 7.66406C59.2331 14.5911 60.3815 19.8594 61.1289 23.4688H61.2246C62.6009 16.6055 63.8678 10.5898 65.0254 5.42188H69.7695C70.9635 10.7083 72.2305 16.724 73.5703 23.4688H73.6934C74.623 18.9753 75.8991 13.1328 77.5215 5.94141C77.5397 5.85026 77.5762 5.67708 77.6309 5.42188H84.5625L77.8906 25H70.4531L67.459 11.4512H67.3633L64.3555 25H56.9316L50.2598 5.42188H57.1777Z" fill="white"/>
    <path d="M100.135 25C99.3327 23.013 98.6445 21.222 98.0703 19.627H89.9766C89.2474 21.6139 88.5547 23.4049 87.8984 25H81.459L89.0195 5.42188H99.0273L106.588 25H100.135ZM97.332 17.5352C96.1927 14.2357 95.1126 10.7174 94.0918 6.98047L93.9824 6.99414C93.0072 10.5671 91.9225 14.0807 90.7285 17.5352H97.332Z" fill="white"/>
    <path d="M118.359 17.1387L114.6 20.666V25H108.488V5.42188H114.6V16.4141H114.805C115.169 15.4023 115.602 14.5182 116.104 13.7617C116.614 13.0052 117.416 12.0618 118.51 10.9316C119.604 9.79232 121.458 7.95573 124.074 5.42188H131.703L122.051 13.8027L132.236 25H124.539L118.359 17.1387Z" fill="white"/>
    <path d="M134.137 5.42188H152.539V10.7539H140.125V14.0898H150.434V16.0039L140.125 15.9902V19.7637H152.553V25H134.137V5.42188Z" fill="white"/>
    <path d="M184.982 16.8926C184.982 19.7728 184.053 21.9375 182.193 23.3867C180.334 24.8268 177.659 25.5469 174.168 25.5469C170.695 25.5469 168.029 24.8268 166.17 23.3867C164.32 21.9375 163.395 19.7682 163.395 16.8789V5.42188H169.383V16.1543C169.383 17.403 169.793 18.36 170.613 19.0254C171.434 19.6816 172.605 20.0098 174.127 20.0098C175.686 20.0098 176.884 19.6816 177.723 19.0254C178.561 18.36 178.98 17.403 178.98 16.1543V5.42188H184.982V16.8926Z" fill="white"/>
    <path d="M187.785 5.42188H198.654C201.844 5.42188 204.214 5.95508 205.764 7.02148C207.313 8.08789 208.088 9.72852 208.088 11.9434C208.088 14.0579 207.363 15.6257 205.914 16.6465C204.465 17.6673 202.232 18.1777 199.215 18.1777H193.773V25H187.785V5.42188ZM199.146 15.9082C200.268 15.9082 201.133 15.7077 201.744 15.3066C202.364 14.8965 202.674 14.2721 202.674 13.4336C202.674 12.5312 202.387 11.8887 201.812 11.5059C201.247 11.123 200.395 10.9316 199.256 10.9316H193.773V15.9082H199.146Z" fill="white"/>
    <path d="M9.04102 29.9996H17.2769L29.9998 17.2767V9.03125L9.04102 29.9996Z" fill="white"/>
    <path d="M29.9987 22.0222L22.0312 29.9992H29.9987V22.0222Z" fill="white"/>
    <path d="M21.3039 0H13.0489L0 13.0489V21.2943L21.3039 0Z" fill="white"/>
    <path d="M0 7.9674L7.9674 0H0V7.9674Z" fill="white"/>
    <path d="M26.0499 0L0 26.0403V30H4.28571L30 4.28571V0H26.0499Z" fill="white"/>
</svg>
