<svg width="150" height="57" viewBox="0 0 150 57" fill="none" xmlns="http://www.w3.org/2000/svg">
<path d="M11.4346 51.187H22.2717L39.013 32.1808V19.8633L11.4346 51.187Z" fill="white"/>
<path d="M39.0133 38.9629L28.251 51.1868H39.0133V38.9629Z" fill="white"/>
<path d="M27.5785 6.87695H16.8921L0 26.0717V38.2006L27.5785 6.87695Z" fill="white"/>
<path d="M0 19.1008L10.7623 6.87695H0V19.1008Z" fill="white"/>
<path d="M33.8765 6.87695L0 45.3398V51.1885H5.57335L39.0134 13.2072V6.87695H33.8765Z" fill="white"/>
<path d="M55.2375 50.6564L45.7393 5.83789H58.0738L62.3535 34.7711L67.3316 5.83789H77.8193L82.5801 34.7711L86.7278 5.83789H98.7403L89.3778 50.6564H76.8299L72.3329 23.7926L67.9989 50.6564H55.2375Z" fill="black"/>
<path d="M121.093 26.9433C120.561 26.9919 120.096 27.0272 119.696 27.0536C119.297 27.0757 118.928 27.0889 118.59 27.0889C117.384 27.0889 116.433 26.8816 115.742 26.4624C115.052 26.0432 114.679 25.4519 114.625 24.6841C113.969 25.5401 113.019 26.1976 111.777 26.6521C110.536 27.111 109.061 27.3361 107.358 27.3361C105.138 27.3361 103.416 26.9257 102.182 26.1094C100.948 25.293 100.331 24.1458 100.331 22.6631C100.331 21.2114 100.905 20.1083 102.046 19.3493C103.191 18.5903 105.662 17.8623 109.457 17.1607L109.538 17.1474C112.662 16.5738 114.222 15.9031 114.222 15.1353V13.5865C114.222 12.8937 113.861 12.3907 113.143 12.0774C112.425 11.7597 111.277 11.6052 109.697 11.6052C108.173 11.6052 107.036 11.8259 106.291 12.2627C105.546 12.6995 105.173 13.3703 105.173 14.2748V14.5661H101.154C101.208 12.854 101.953 11.6052 103.389 10.8154C104.824 10.0255 107.098 9.63281 110.202 9.63281C113.112 9.63281 115.234 9.99464 116.577 10.7183C117.915 11.442 118.587 12.5892 118.587 14.1557V23.9781C118.587 24.4149 118.726 24.7282 119.013 24.918C119.297 25.1077 119.758 25.2004 120.399 25.2004C120.523 25.2004 120.717 25.1871 120.984 25.1562C121.019 25.1562 121.054 25.1518 121.089 25.143V26.9433H121.093ZM114.334 17.849C113.659 18.2594 112.169 18.6918 109.864 19.1463C109.67 19.186 109.527 19.2125 109.437 19.2346C107.451 19.614 106.155 20.0421 105.554 20.5186C104.948 20.9952 104.65 21.7012 104.65 22.6367C104.65 23.475 104.987 24.1193 105.662 24.5782C106.337 25.0371 107.284 25.2621 108.51 25.2621C110.283 25.2621 111.7 24.8915 112.755 24.1546C113.81 23.4133 114.338 22.4249 114.338 21.1761V17.849H114.334Z" fill="black"/>
<path d="M123.747 26.9079L127.743 0L131.538 0.0264752L128.814 17.4738L134.173 10.9741H138.639L133.28 17.2708L136.326 26.899L132.349 26.8946L130.141 20.0816L128.097 22.5659L127.363 26.9123H123.747V26.9079Z" fill="black"/>
<path d="M146.655 20.9958H149.716C149.716 21.0709 149.72 21.1768 149.728 21.3135C149.735 21.4503 149.739 21.5518 149.739 21.618C149.739 23.4404 149.355 24.7818 148.591 25.6335C147.826 26.4851 146.612 26.9131 144.951 26.9131C144.078 26.9131 143.345 26.7895 142.751 26.538C142.162 26.2909 141.673 25.9026 141.292 25.3775C140.838 24.7598 140.52 23.9832 140.334 23.0433C140.148 22.1034 140.055 20.4134 140.055 17.9732C140.055 16.0317 140.136 14.6373 140.299 13.7989C140.462 12.9605 140.738 12.2766 141.126 11.7383C141.529 11.1867 142.061 10.7675 142.712 10.4895C143.364 10.2071 144.14 10.0703 145.041 10.0703C145.906 10.0703 146.655 10.2203 147.283 10.5204C147.912 10.8204 148.432 11.2749 148.843 11.8795C149.192 12.4134 149.44 13.0841 149.592 13.8916C149.743 14.6991 149.817 16.0008 149.817 17.7967V19.0146H143.426C143.411 19.1337 143.399 19.2617 143.395 19.3941C143.392 19.5265 143.388 19.7427 143.388 20.0383C143.388 21.5562 143.512 22.6241 143.756 23.2286C144.001 23.8331 144.424 24.142 145.013 24.142C145.588 24.142 146.007 23.8949 146.267 23.4007C146.527 22.8977 146.655 22.099 146.655 20.9958ZM143.388 16.4597H146.546V15.7846C146.546 14.6903 146.43 13.9313 146.193 13.5165C145.956 13.1017 145.545 12.8944 144.955 12.8944C144.381 12.8944 143.97 13.1106 143.729 13.5386C143.485 13.9666 143.364 14.7168 143.364 15.7846C143.38 16.0891 143.388 16.3141 143.388 16.4597Z" fill="black"/>
<path d="M134.921 34.4888V50.3211H130.227V47.3867C128.399 48.459 126.168 49.2709 123.541 49.8225C120.915 50.3785 117.942 50.6565 114.629 50.6565C109.736 50.6565 106.815 50.1181 104.646 48.8517C102.45 47.5677 100.335 46.1247 100.335 42.4535V34.4888H105.903V39.8765C105.903 41.8798 105.779 43.5434 107.432 44.5274C109.115 45.5335 112.13 46.4998 115.902 46.4998C120.154 46.4998 122.862 46.6101 126.23 45.4187C130.494 43.914 130.083 43.1154 130.083 40.4855V34.4844H134.921V34.4888Z" fill="black"/>
<path d="M143.783 33.0556L143.477 34.7941C143.903 33.9954 144.377 33.413 144.889 33.0423C145.401 32.6717 146.003 32.4863 146.685 32.4863C147.799 32.4863 148.625 32.8967 149.176 33.7174C149.724 34.5382 149.999 35.7825 149.999 37.4461C149.999 37.8653 149.972 38.333 149.921 38.8537C149.871 39.3744 149.77 40.1112 149.627 41.0644C149.456 42.2205 149.258 43.2751 149.029 44.2149C148.804 45.1592 148.563 45.9535 148.315 46.5933C147.838 47.8112 147.26 48.7114 146.588 49.3026C145.917 49.8895 145.122 50.1852 144.21 50.1852C143.527 50.1852 142.949 49.9866 142.483 49.585C142.018 49.1879 141.672 48.5966 141.451 47.82L140.066 55.467H136.562L140.796 33.0511H143.783V33.0556ZM143.31 47.0787C143.729 47.0787 144.097 46.9243 144.412 46.6198C144.73 46.3153 144.994 45.8564 145.207 45.2563C145.642 43.9634 145.995 42.5867 146.259 41.135C146.523 39.6788 146.658 38.4345 146.658 37.3931C146.658 36.6739 146.557 36.162 146.356 35.8531C146.154 35.5442 145.824 35.3942 145.362 35.3942C144.858 35.3942 144.435 35.6148 144.094 36.0561C143.752 36.4974 143.43 37.2651 143.131 38.355C142.782 39.6479 142.511 40.9011 142.317 42.1057C142.123 43.3104 142.029 44.365 142.029 45.2563C142.029 45.8299 142.142 46.28 142.371 46.5977C142.592 46.9199 142.906 47.0787 143.31 47.0787Z" fill="black"/>
<path d="M55.2375 51.4586L45.7393 6.64453H58.0738L62.3535 35.5778L67.3316 6.64453H77.8193L82.5801 35.5778L86.7278 6.64453H98.7403L89.3778 51.4586H76.8299L72.3329 24.5949L67.9989 51.4586H55.2375Z" fill="white"/>
<path d="M121.093 27.7475C120.561 27.7961 120.096 27.8314 119.696 27.8578C119.297 27.8799 118.928 27.8931 118.59 27.8931C117.384 27.8931 116.433 27.6857 115.742 27.2665C115.052 26.8473 114.679 26.2561 114.625 25.4883C113.969 26.3443 113.019 27.0018 111.777 27.4563C110.536 27.9152 109.061 28.1402 107.358 28.1402C105.138 28.1402 103.416 27.7299 102.182 26.9135C100.948 26.0972 100.331 24.9499 100.331 23.4673C100.331 22.0156 100.905 20.9124 102.046 20.1535C103.191 19.3945 105.662 18.6664 109.457 17.9648L109.538 17.9516C112.662 17.378 114.222 16.7073 114.222 15.9395V14.3951C114.222 13.7023 113.861 13.1993 113.143 12.886C112.425 12.5683 111.277 12.4138 109.697 12.4138C108.173 12.4138 107.036 12.6345 106.291 13.0713C105.546 13.5081 105.173 14.1789 105.173 15.0834V15.3747H101.154C101.208 13.6626 101.953 12.4138 103.389 11.624C104.824 10.8341 107.098 10.4414 110.202 10.4414C113.112 10.4414 115.234 10.8032 116.577 11.5269C117.915 12.2506 118.587 13.3978 118.587 14.9643V24.7867C118.587 25.2235 118.726 25.5368 119.013 25.7266C119.297 25.9163 119.758 26.009 120.399 26.009C120.523 26.009 120.717 25.9957 120.984 25.9648C121.019 25.9648 121.054 25.9604 121.089 25.9516V27.7475H121.093ZM114.334 18.6576C113.659 19.068 112.169 19.5004 109.864 19.9549C109.67 19.9946 109.527 20.0211 109.437 20.0432C107.451 20.4226 106.155 20.8507 105.554 21.3272C104.948 21.8038 104.65 22.5098 104.65 23.4453C104.65 24.2836 104.987 24.9279 105.662 25.3868C106.337 25.8457 107.284 26.0707 108.51 26.0707C110.283 26.0707 111.7 25.7001 112.755 24.9632C113.81 24.2219 114.338 23.2335 114.338 21.9847V18.6576H114.334Z" fill="white"/>
<path d="M123.627 27.6963L127.674 0.828125H131.356L128.861 17.5429L133.777 11.7625H137.948L132.675 17.9798L135.795 27.7007H132.074L129.971 20.8833L127.996 23.191L127.239 27.7007H123.627V27.6963Z" fill="white"/>
<path d="M146.655 21.7849H149.716C149.716 21.8599 149.72 21.9658 149.728 22.1026C149.735 22.2394 149.739 22.3409 149.739 22.4071C149.739 24.2295 149.355 25.5709 148.591 26.4225C147.826 27.2741 146.612 27.7022 144.951 27.7022C144.078 27.7022 143.345 27.5786 142.751 27.3271C142.162 27.08 141.673 26.6917 141.292 26.1666C140.838 25.5488 140.52 24.7722 140.334 23.8323C140.148 22.8925 140.055 21.2024 140.055 18.7623C140.055 16.8208 140.136 15.4264 140.299 14.588C140.462 13.7496 140.738 13.0657 141.126 12.5273C141.529 11.9758 142.061 11.5566 142.712 11.2786C143.364 10.9962 144.14 10.8594 145.041 10.8594C145.906 10.8594 146.655 11.0094 147.283 11.3095C147.912 11.6095 148.432 12.064 148.843 12.6685C149.192 13.2025 149.44 13.8732 149.592 14.6807C149.743 15.4882 149.817 16.7899 149.817 18.5858V19.8037H143.426C143.411 19.9228 143.399 20.0508 143.395 20.1831C143.392 20.3155 143.388 20.5317 143.388 20.8274C143.388 22.3453 143.512 23.4131 143.756 24.0177C144.001 24.6222 144.424 24.9311 145.013 24.9311C145.588 24.9311 146.007 24.684 146.267 24.1898C146.527 23.6911 146.655 22.8925 146.655 21.7849ZM143.388 17.2532H146.546V16.5781C146.546 15.4837 146.43 14.7248 146.193 14.31C145.956 13.8952 145.545 13.6878 144.955 13.6878C144.381 13.6878 143.97 13.904 143.729 14.3321C143.485 14.7601 143.364 15.5102 143.364 16.5781C143.38 16.8781 143.388 17.1076 143.388 17.2532Z" fill="white"/>
<path d="M134.921 35.291V51.1233H130.227V48.1934C128.399 49.2656 126.168 50.0775 123.541 50.6291C120.915 51.1851 117.942 51.4631 114.629 51.4631C109.736 51.4631 106.815 50.9248 104.646 49.6584C102.45 48.3743 100.335 46.9314 100.335 43.2601V35.2954H105.903V40.6832C105.903 42.6865 105.779 44.35 107.432 45.334C109.115 46.3401 112.13 47.3064 115.902 47.3064C120.154 47.3064 122.862 47.4168 126.23 46.2254C130.494 44.7207 130.083 43.922 130.083 41.2921V35.291H134.921Z" fill="white"/>
<path d="M143.605 34.0614L143.299 35.8C143.726 35.0013 144.199 34.4188 144.711 34.0482C145.223 33.6775 145.825 33.4922 146.508 33.4922C147.621 33.4922 148.448 33.9026 148.999 34.7233C149.546 35.544 149.821 36.7884 149.821 38.4519C149.821 38.8711 149.794 39.3388 149.744 39.8595C149.693 40.3802 149.592 41.1171 149.449 42.0702C149.278 43.2263 149.08 44.2809 148.851 45.2208C148.626 46.1651 148.386 46.9594 148.137 47.5992C147.66 48.817 147.082 49.7172 146.411 50.3085C145.739 50.8954 144.944 51.191 144.032 51.191C143.349 51.191 142.771 50.9924 142.306 50.5909C141.84 50.1938 141.495 49.6025 141.274 48.8259L139.888 56.4729H136.385L140.618 34.057H143.605V34.0614ZM143.132 48.0846C143.551 48.0846 143.92 47.9301 144.234 47.6257C144.552 47.3212 144.816 46.8623 145.029 46.2622C145.464 44.9693 145.817 43.5926 146.081 42.1408C146.345 40.6847 146.481 39.4403 146.481 38.399C146.481 37.6797 146.38 37.1679 146.178 36.859C145.976 36.5545 145.646 36.4001 145.185 36.4001C144.68 36.4001 144.257 36.6207 143.916 37.062C143.574 37.5032 143.252 38.271 142.954 39.3609C142.604 40.6538 142.333 41.907 142.139 43.1116C141.945 44.3162 141.852 45.3708 141.852 46.2622C141.852 46.8358 141.964 47.2859 142.193 47.6036C142.414 47.9257 142.729 48.0846 143.132 48.0846Z" fill="white"/>
</svg>
