<svg width="16" height="12" viewBox="0 0 16 12" fill="none" xmlns="http://www.w3.org/2000/svg">
    <path fill-rule="evenodd" clip-rule="evenodd" d="M1.75881 11.1748C1.47894 11.09 1.22357 10.9391 1.01426 10.7349C0.804945 10.5306 0.647835 10.279 0.556183 10.0013C0.0324556 8.56591 -0.122723 2.57215 0.885936 1.38891C1.22164 1.004 1.6956 0.767014 2.20495 0.729402C4.91088 0.438442 13.2711 0.477237 14.2313 0.826389C14.5013 0.914002 14.7481 1.0616 14.953 1.25811C15.1579 1.45463 15.3157 1.69497 15.4145 1.96113C15.9867 3.44502 16.0061 8.83747 15.3369 10.2632C15.1594 10.6343 14.8622 10.9349 14.4931 11.1167C13.4845 11.621 3.09723 11.6113 1.75881 11.1748ZM6.05532 8.36224L10.9046 5.84059L6.05532 3.29954V8.36224Z" fill="white"/>
</svg>
